<svg xmlns="http://www.w3.org/2000/svg" viewBox="0 0 64 64"><g data-name="Data Analysis_brain_arrow_graph_think"><path d="M4 40h6v20H4zM17 30A13 13 0 1 0 4 17a13.012 13.012 0 0 0 13 13zM6 17a4.976 4.976 0 0 1 2.1-4.05A4.318 4.318 0 0 1 8 12a4.99 4.99 0 0 1 9-2.98 5 5 0 0 1 8.91 3.93 4.962 4.962 0 0 1-.01 8.1 4.318 4.318 0 0 1 .1.95 4.985 4.985 0 0 1-9 2.97 4.992 4.992 0 0 1-8.91-3.92A5.006 5.006 0 0 1 6 17zM16 38h6v22h-6zM40 21h6v39h-6zM28 34h6v26h-6z" style="fill:#0d6050"/><path d="M21 25a3.009 3.009 0 0 0 3-3c0-.04-.01-.07-.01-.1a5.359 5.359 0 0 1-.99.1 5.037 5.037 0 0 1-2.5-.67l1-1.74a2.946 2.946 0 0 0 2.79.11 2.986 2.986 0 0 0 .02-5.39 2.926 2.926 0 0 0-2.81.1l-1-1.74a5.094 5.094 0 0 1 3.49-.56c0-.04.01-.07.01-.11a3 3 0 0 0-5.9-.75 2.614 2.614 0 0 0-.1.75v10a3.009 3.009 0 0 0 3 3zM51 10a1 1 0 0 1 1 1v49h6V11a1 1 0 0 1 1-1l-4-5.333zM9.69 19.69a2.926 2.926 0 0 0 2.81-.1l1 1.74A5.037 5.037 0 0 1 11 22a5.359 5.359 0 0 1-.99-.1c0 .03-.01.06-.01.1a3 3 0 0 0 6 0V12a2.753 2.753 0 0 0-.09-.73A3 3 0 0 0 10 12c0 .04.01.07.01.11a5.1 5.1 0 0 1 3.49.56l-1 1.74a2.946 2.946 0 0 0-2.79-.11 2.986 2.986 0 0 0-.02 5.39z" style="fill:#0d6050" /></g></svg>