<svg id="Layer_39" viewBox="0 0 100 100" xmlns="http://www.w3.org/2000/svg" data-name="Layer 39">
  <!-- Прямоугольник -->
  <path d="m35 49.75.58-.38a1.47 1.47 0 0 1 .83-.25 1.51 1.51 0 0 1 1.06.44l5.47 5.44a1.51 1.51 0 0 1 .19 1.89l-1 1.44h6.67v-20.83h-13.8z" fill="#0d6050"></path>

  <!-- Вертикальные прямоугольники -->
  <path d="m58.08 27.5h13.85v30.86h-13.85z" fill="#0d6050"></path>
  <path d="m81.15 17.5h13.85v40.86h-13.85z" fill="#0d6050"></path>
  <path d="m22.5 12.5h5v33.5h-5z" fill="#0d6050"></path>

  <!-- Горизонтальная полоса -->
  <path d="m46.5 65.07h48.5v5h-48.5z" fill="#0d6050"></path>

  <!-- Шестеренка с анимацией -->
  <path
    d="m45 63.63-3.77-.77a16.81 16.81 0 0 0 -1.47-3.55l2.12-3.22-5.47-5.47-3.22 2.12a16.81 16.81 0 0 0 -3.55-1.47l-.77-3.77h-7.74l-.77 3.77a16.81 16.81 0 0 0 -3.55 1.47l-3.22-2.12-5.47 5.47 2.12 3.22a16.81 16.81 0 0 0 -1.47 3.55l-3.77.77v7.74l3.77.77a16.81 16.81 0 0 0 1.47 3.55l-2.12 3.22 5.47 5.47 3.22-2.12a16.81 16.81 0 0 0 3.55 1.47l.77 3.77h7.74l.77-3.77a16.81 16.81 0 0 0 3.55-1.47l3.22 2.12 5.47-5.47-2.12-3.22a16.81 16.81 0 0 0 1.47-3.55l3.77-.77zm-20 12.85a9 9 0 1 1 9-9 9 9 0 0 1 -9 9z"
    fill="#0d6050"
  >
    <!-- Анимация вращения -->
    <animateTransform
      attributeName="transform"
      attributeType="XML"
      type="rotate"
      from="0 25 67.5"
      to="360 25 67.5"
      dur="3s"
      repeatCount="indefinite"
    />
  </path>

  <!-- Круг в центре -->
  <circle cx="25" cy="67.5" r="7.48" fill="#0d6050"></circle>
</svg>