<svg xmlns="http://www.w3.org/2000/svg" viewBox="0 0 52 52"><path d="M41.951 33.416a2.562 2.562 0 0 0-2.795-.543L36.08 29.81c4.257-7.097 3.333-16.457-2.798-22.558C26.238.245 14.564-.067 7.215 7.32.039 14.53.062 26.23 7.265 33.399c6.003 5.972 15.295 7.09 22.57 2.683l3.077 3.062a2.554 2.554 0 0 0-.194.986c.001.684.27 1.327.754 1.808l6.374 6.343c5.65 5.621 14.042-2.987 8.48-8.523zM8.677 31.981c-6.423-6.39-6.443-16.82-.044-23.252 6.402-6.434 16.795-6.468 23.237-.058 6.506 6.473 6.413 16.871.069 23.251-6.378 6.41-16.815 6.475-23.262.06zm22.878 2.923a17.738 17.738 0 0 0 3.367-3.385l.017-.02 2.664 2.65-3.42 3.437-2.665-2.651.037-.03zM46.929 46.85a4.01 4.01 0 0 1-5.672.014l-6.375-6.343a.554.554 0 0 1-.164-.395c0-.15.057-.29.163-.396l4.868-4.893a.56.56 0 0 1 .792-.002l6.374 6.342a4.008 4.008 0 0 1 .014 5.673z" style="fill:#0d6050"/><path d="M9.535 26.995a1 1 0 0 0-1 1v1.446a1 1 0 0 0 2 0v-1.446a1 1 0 0 0-1-1zM13.792 22.938a1 1 0 0 0-1 1v5.54a1 1 0 0 0 2 0v-5.54a1 1 0 0 0-1-1zM18.048 21.666a1 1 0 0 0-1 1v6.85a1 1 0 0 0 2 0v-6.85a1 1 0 0 0-1-1zM22.304 23.825a1 1 0 0 0-1 1v4.728a1 1 0 0 0 2 0v-4.728a1 1 0 0 0-1-1zM26.56 23.14a1 1 0 0 0-1 1v5.226a1 1 0 0 0 2 0v-5.227a1 1 0 0 0-1-1zM30.817 18.628a1 1 0 0 0-1 1v9.775a1 1 0 0 0 2 0v-9.775a1 1 0 0 0-1-1z" style="fill:#0d6050"/><path d="M28.766 16.022c.434.262.936.421 1.48.421a2.889 2.889 0 0 0 2.885-2.885 2.889 2.889 0 0 0-2.886-2.886 2.889 2.889 0 0 0-2.885 2.886c0 .316.064.616.158.9l-3.244 2.672a2.895 2.895 0 0 0-1.892-.707c-.814 0-1.575.36-2.117.947l-1.681-.787c-.05-1.689-1.422-2.8-2.877-2.8-1.53 0-2.886 1.24-2.886 2.886 0 .335.064.665.185.985l-2.676 2.45c-1.943-.995-4.203.432-4.203 2.562 0 1.549 1.275 2.885 2.886 2.885 1.597 0 2.885-1.323 2.885-2.885 0-.357-.072-.715-.213-1.09l2.625-2.404c.426.24.9.383 1.397.383.877 0 1.683-.413 2.222-1.07l1.575.737c0 .03-.007.058-.007.087a2.889 2.889 0 0 0 2.885 2.886 2.889 2.889 0 0 0 2.886-2.886c0-.124-.022-.25-.038-.375zm1.48-3.35c.496 0 .885.39.885.886a.886.886 0 0 1-1.771 0c0-.488.397-.886.885-.886zM9.012 23.552a.897.897 0 0 1-.886-.886c0-.52.423-.886.886-.886.447 0 .885.344.885.886a.89.89 0 0 1-.885.885zm6.694-5.997a.897.897 0 0 1-.886-.886c0-.524.428-.885.886-.885s.885.334.885.885a.889.889 0 0 1-.885.886zm6.675 2.64a.886.886 0 0 1-.885-.886c0-.499.417-.886.885-.886.453 0 .886.345.886.886a.887.887 0 0 1-.886.886z" style="fill:#0d6050"/></svg>