<svg id="Solid" viewBox="0 0 512 512" xmlns="http://www.w3.org/2000/svg">
  <!-- ВРАЩАЮЩАЯСЯ КАТУШКА -->
  <g>
    <animateTransform 
      attributeName="transform"
      attributeType="XML"
      type="rotate"
      from="0 128 224"
      to="360 128 224"
      dur="3s"
      repeatCount="indefinite"/>
      
    <path d="m224 224a96 96 0 1 0 -96 96 96.108 96.108 0 0 0 96-96zm-96-80a28 28 0 1 1 -28 28 28.032 28.032 0 0 1 28-28zm8 72v16h-16v-16zm-60 36a28 28 0 1 1 28-28 28.032 28.032 0 0 1 -28 28zm52 52a28 28 0 1 1 28-28 28.032 28.032 0 0 1 -28 28zm24-80a28 28 0 1 1 28 28 28.032 28.032 0 0 1 -28-28z"
      fill="#000000"
      style="fill: rgb(13, 96, 80);"/>
  </g>

  <!-- остальные элементы SVG, как у тебя в оригинале -->
  <circle cx="128" cy="276" r="12" fill="#000000" style="fill: rgb(13, 96, 80);"></circle>
  
  
  
  
  
  
  
  
  
  
  <circle cx="180" cy="224" r="12" fill="#000000" style="fill: rgb(13, 96, 80);"></circle>
  
  
  <path d="m280 159.506v40.494a8 8 0 0 0 16 0v-40.494a69.8 69.8 0 0 1 -16 0z" fill="#000000" style="fill: rgb(13, 96, 80);"></path>
  
  
  <path d="m327.6 127.6a56 56 0 1 0 -79.2 0 55.634 55.634 0 0 0 79.2 0zm-16.973-73.541 11.314 11.313-11.314 11.315-11.313-11.314zm0 45.254 11.314 11.315-11.314 11.313-11.313-11.314zm-30.627-19.313h16v16h-16zm-14.627-25.941 11.313 11.314-11.313 11.314-11.314-11.315zm0 45.254 11.313 11.314-11.313 11.314-11.314-11.313z" fill="#000000" style="fill: rgb(13, 96, 80);"></path>
  
  
  <circle cx="128" cy="172" r="12" fill="#000000" style="fill: rgb(13, 96, 80);"></circle>
  <circle cx="76" cy="224" r="12" fill="#000000" style="fill: rgb(13, 96, 80);"></circle>
  
  
  <path d="m360 344v-8-96-8h-16v112z" fill="#000000" style="fill: rgb(13, 96, 80);"></path>
  
  
  <path d="m296 256h32v64h-32z" fill="#000000" style="fill: rgb(13, 96, 80);"></path>
  
  
  <path d="m408 264h40v48h-40z" fill="#000000" style="fill: rgb(13, 96, 80);"></path>
  
  
  <path d="m464 264h16v48h-16z" fill="#000000" style="fill: rgb(13, 96, 80);"></path>
  
  
  <path d="m376 328h16v-8-64-8h-16z" fill="#000000" style="fill: rgb(13, 96, 80);"></path>
  
  
  <path d="m408 336a8 8 0 0 1 -8 8h-24v8a8 8 0 0 1 -8 8h-32a8 8 0 0 1 -8-8v-16h-40a8 8 0 0 1 -8-8v-80a8 8 0 0 1 8-8h40v-16a8 8 0 0 1 8-8h32a8 8 0 0 1 8 8v8h24a8 8 0 0 1 8 8v8h16v-40a16.019 16.019 0 0 0 -16-16h-96v8a24 24 0 0 1 -48 0v-8h-28.666a112.006 112.006 0 0 1 -99.334 143.711v32.289a16.019 16.019 0 0 0 16 16h256a16.019 16.019 0 0 0 16-16v-40h-16zm-152 32h-104v-16h104zm0-32h-48v-16h48zm0-32h-24v-16h24z" fill="#000000" style="fill: rgb(13, 96, 80);"></path>
  
  


</svg>

