<svg xmlns="http://www.w3.org/2000/svg" xml:space="preserve" style="enable-background:new 0 0 28.158 28.158" viewBox="0 0 28.158 28.158"><path d="M23.415 0v1.923h-2.249V0h-1.39v.945H8.383V0H6.78v1.966H4.53V0h-.904v28.158h.778v-2.252h2.25v2.252h1.729v-1.953h11.392v1.953h1.32v-2.252h2.252v2.252h1.185V0h-1.117zM6.738 24.251h-2.25v-2.253h2.25v2.253zm0-4.574h-2.25v-2.252h2.25v2.252zm0-4.763h-2.25v-2.252h2.25v2.252zm0-4.574h-2.25V8.088h2.25v2.252zm0-4.382h-2.25V3.705h2.25v2.253zm13.008 18.263H8.089v-9.042h11.657v9.042zm0-11.444H8.089V3.52h11.657v9.257zm3.602 11.474h-2.252v-2.253h2.252v2.253zm0-4.574h-2.252v-2.252h2.252v2.252zm0-4.763h-2.252v-2.252h2.252v2.252zm0-4.574h-2.252V8.088h2.252v2.252zm0-4.382h-2.252V3.705h2.252v2.253z" style="fill:#0d6050"/>
</svg>