<?xml version="1.0" standalone="no"?>
<!DOCTYPE svg PUBLIC "-//W3C//DTD SVG 20010904//EN"
 "http://www.w3.org/TR/2001/REC-SVG-20010904/DTD/svg10.dtd">
<svg version="1.0" xmlns="http://www.w3.org/2000/svg"
 width="914.000000pt" height="168.000000pt" viewBox="0 0 914.000000 168.000000"
 preserveAspectRatio="xMidYMid meet">
<metadata>
Created by potrace 1.16, written by Peter Selinger 2001-2019
</metadata>
<g transform="translate(0.000000,168.000000) scale(0.100000,-0.100000)"
fill="#000000" stroke="none">
<path d="M5670 1416 c-314 -63 -537 -340 -539 -668 -1 -57 3 -98 9 -98 5 0 7
-7 4 -15 -6 -16 29 -140 47 -165 8 -12 9 -10 4 10 l-6 25 15 -25 c18 -29 20
-44 6 -35 -6 3 -7 -1 -3 -10 4 -12 8 -13 13 -4 6 8 11 6 19 -9 16 -29 14 -37
-6 -21 -14 12 -14 10 1 -14 20 -30 29 -35 20 -12 -4 8 -1 15 5 15 6 0 2 15 -9
33 -25 42 -70 163 -69 185 0 9 7 -3 14 -28 13 -40 37 -70 56 -70 4 0 14 6 21
13 29 28 109 78 120 75 7 -3 -15 -22 -48 -43 -32 -22 -61 -42 -64 -46 -3 -3
-11 -8 -19 -11 -8 -2 -15 -12 -17 -21 -2 -13 2 -15 16 -7 9 5 19 7 22 5 3 -3
80 34 172 81 92 47 173 83 179 81 7 -2 -35 -27 -92 -56 -58 -28 -110 -56 -115
-60 -6 -5 -36 -19 -66 -31 -30 -13 -63 -32 -72 -42 -16 -18 -16 -23 -3 -48 27
-52 143 -156 217 -194 107 -55 121 -50 133 49 4 33 12 66 17 72 8 10 4 12 -19
7 -40 -8 -85 16 -150 79 -53 51 -66 84 -40 105 29 24 200 92 218 87 36 -12 40
-38 21 -123 -18 -75 -18 -81 -2 -95 15 -12 18 -12 28 2 9 14 11 12 12 -9 1
-22 4 -20 20 15 11 22 22 59 26 83 3 23 10 42 14 42 4 0 4 -15 0 -32 -19 -83
-18 -88 5 -23 28 78 21 115 -21 115 -31 0 -75 25 -106 61 -34 38 -37 60 -5 30
72 -67 106 -86 138 -76 11 4 32 7 49 7 31 1 100 51 100 73 0 7 7 15 15 19 24
9 18 -3 -31 -54 -41 -43 -90 -69 -117 -62 -5 2 -7 -3 -4 -10 2 -8 17 -12 34
-11 17 2 36 -4 43 -12 6 -7 19 -11 28 -8 13 4 14 3 3 -5 -11 -8 -10 -14 4 -36
9 -14 21 -24 25 -21 5 3 12 0 16 -6 4 -8 3 -9 -4 -5 -7 4 -12 4 -12 0 0 -12
41 -74 50 -74 10 0 1 -40 -13 -58 -13 -17 -103 -42 -161 -44 -36 -2 -51 2 -61
15 -8 11 -16 14 -19 8 -4 -5 2 -15 11 -21 17 -11 17 -11 1 -6 -58 19 -55 18
-36 7 16 -11 16 -14 -2 -54 -27 -58 -26 -85 5 -97 29 -11 159 -5 230 11 70 16
145 56 145 76 0 10 -18 43 -40 74 -25 36 -40 68 -39 86 0 15 3 21 6 13 12 -38
28 -60 39 -56 6 2 17 -1 23 -7 16 -16 14 12 -4 46 -9 18 -11 27 -3 25 6 -2 24
-29 39 -59 31 -61 45 -79 61 -79 18 0 121 112 153 167 9 15 13 19 10 8 -4 -11
-7 -24 -8 -30 -1 -5 -4 -12 -7 -15 -33 -33 -80 -102 -75 -111 9 -14 45 19 39
35 -3 7 7 25 22 42 15 17 24 22 21 11 -9 -24 -2 -21 18 9 9 15 12 23 6 20 -13
-9 -14 4 -2 23 6 9 6 22 0 32 -6 12 -5 20 3 25 6 4 8 3 5 -3 -4 -6 -1 -18 7
-28 11 -16 15 -12 35 34 12 28 19 56 16 61 -3 6 -2 10 3 10 19 0 35 120 29
228 -8 167 -63 297 -178 425 -148 165 -386 246 -599 203z m176 -174 c-3 -5 21
-14 52 -20 82 -17 136 -50 142 -87 5 -25 7 -27 15 -13 6 9 35 33 65 53 l55 36
-60 -55 c-33 -30 -65 -55 -71 -56 -17 0 -55 -46 -47 -55 5 -4 2 -5 -5 -1 -8 5
-33 -11 -68 -43 -60 -55 -61 -55 -97 -42 -23 9 -32 29 -42 86 -2 11 -9 48 -15
83 -13 76 -7 100 28 108 15 3 32 7 37 9 16 5 16 5 11 -3z m-189 -65 c12 -20
30 -222 22 -244 -15 -39 -49 -38 -130 4 -41 22 -112 55 -159 73 -47 19 -92 40
-100 47 -8 8 18 0 59 -17 41 -16 75 -30 77 -30 2 0 4 11 4 24 0 13 7 29 15 36
17 14 21 35 5 25 -18 -11 -11 1 12 21 12 10 18 13 14 7 -12 -21 10 -15 30 9
18 20 18 21 1 15 -11 -4 -16 -3 -12 4 4 6 12 8 19 6 6 -3 31 5 56 18 43 22 74
23 87 2z m448 -137 c-4 -6 5 -7 24 -4 26 6 33 2 51 -27 46 -76 75 -192 60
-238 -4 -10 18 -20 80 -37 47 -12 74 -23 60 -23 -23 -1 -83 14 -220 53 -30 9
-83 23 -118 32 -104 27 -106 62 -8 161 34 35 62 67 62 73 2 17 4 20 10 20 3 0
2 -4 -1 -10z m-619 -185 c100 -59 119 -80 109 -123 -4 -22 -22 -36 -90 -70
-47 -24 -85 -47 -85 -52 0 -13 -72 -3 -87 13 -12 12 -12 16 -2 22 7 5 10 4 6
-1 -3 -6 3 -16 14 -22 20 -13 20 -12 3 14 -25 38 -26 210 -1 248 10 14 22 26
28 26 6 0 53 -25 105 -55z m643 -181 c27 -6 33 -4 27 7 -4 8 -1 6 7 -3 8 -10
21 -18 29 -18 19 0 38 -20 38 -39 0 -25 -48 -120 -81 -162 -26 -33 -36 -39
-64 -37 -22 1 -32 7 -31 17 1 9 -4 15 -11 14 -7 -2 -10 4 -7 12 3 7 -10 43
-30 79 -35 64 -43 97 -29 131 5 15 15 17 62 12 31 -4 71 -9 90 -13z m-656
-287 c-3 -6 -2 -7 4 -4 5 3 31 -10 58 -29 27 -18 57 -34 67 -34 44 0 -6 -46
-57 -52 -31 -4 -46 0 -67 17 -15 13 -24 26 -20 30 4 4 7 12 7 17 0 6 7 13 15
16 8 3 12 1 8 -3 -9 -9 9 -45 22 -45 6 0 10 9 10 21 0 11 5 17 10 14 16 -10
12 1 -6 15 -12 11 -15 11 -12 0 2 -7 -2 -14 -9 -17 -7 -3 -11 3 -8 15 3 19
-18 24 -43 8 -14 -9 -16 6 -2 20 6 6 3 10 -10 11 -25 2 -25 -8 1 -41 17 -22
18 -26 4 -26 -10 0 -13 -5 -9 -12 4 -7 3 -8 -5 -4 -6 4 -9 16 -6 27 4 12 1 21
-9 25 -8 3 -19 19 -25 36 -10 27 -9 29 6 17 14 -12 15 -11 8 11 -7 22 -6 23 9
11 9 -8 19 -11 23 -7 3 3 2 6 -4 6 -6 0 -14 8 -18 18 -3 9 9 2 29 -17 19 -19
32 -39 29 -44z m523 -79 c5 -7 3 -8 -6 -3 -10 6 -12 4 -7 -9 6 -14 3 -17 -10
-12 -12 4 -9 0 6 -12 16 -13 20 -22 12 -26 -6 -4 -11 -2 -11 3 0 6 -5 11 -12
11 -6 0 -8 -3 -5 -7 4 -3 2 -12 -4 -20 -9 -10 -8 -13 2 -13 12 0 12 -2 0 -9
-9 -6 -24 -6 -38 0 -17 6 -25 5 -29 -5 -7 -18 -102 -21 -101 -4 1 36 -5 49
-25 57 -21 8 -22 10 -4 16 11 5 21 3 27 -6 8 -12 10 -12 18 0 6 9 22 12 49 9
22 -2 39 -1 36 1 -4 4 68 37 88 40 4 1 10 -4 14 -11z"/>
<path d="M70 715 l0 -335 65 0 65 0 0 140 0 139 107 3 106 3 0 38 c-1 20 -2
44 -2 52 -1 12 -20 15 -106 15 l-105 0 0 85 0 85 140 0 140 0 0 55 0 55 -205
0 -205 0 0 -335z"/>
<path d="M1480 715 l0 -335 65 0 65 0 0 335 0 335 -65 0 -65 0 0 -335z"/>
<path d="M2650 715 l0 -335 175 0 175 0 0 55 0 55 -110 0 -110 0 0 280 0 280
-65 0 -65 0 0 -335z"/>
<path d="M3990 715 l0 -336 68 3 67 3 0 203 c0 111 2 202 5 202 5 0 52 -110
136 -317 l38 -93 52 0 51 0 83 203 c45 111 86 206 91 212 5 5 9 -82 9 -203 l0
-212 65 0 65 0 0 335 0 336 -77 -3 -76 -3 -102 -237 c-55 -131 -104 -240 -106
-243 -3 -3 -53 104 -110 237 l-104 243 -77 3 -78 3 0 -336z"/>
<path d="M6890 715 l0 -335 65 0 65 0 0 130 0 130 33 0 c31 0 35 -5 107 -130
l74 -130 73 0 c40 0 73 3 73 7 0 6 -106 191 -138 241 -14 21 -13 23 21 37 70
29 115 99 116 183 1 55 -18 101 -60 141 -52 48 -110 61 -281 61 l-148 0 0
-335z m326 192 c16 -19 24 -40 24 -67 0 -27 -8 -48 -24 -67 -23 -26 -31 -28
-110 -32 l-86 -3 0 102 0 102 86 -3 c79 -4 87 -6 110 -32z"/>
<path d="M8487 723 c-65 -180 -117 -331 -117 -335 0 -5 31 -8 68 -8 l68 0 20
63 20 62 134 0 134 0 24 -62 24 -63 70 0 c60 0 69 2 64 16 -3 9 -42 118 -87
242 -44 125 -95 268 -114 317 l-33 90 -79 3 -78 3 -118 -328z m283 -93 c0 -13
-15 -16 -90 -16 -49 -1 -90 2 -90 6 0 6 73 227 86 260 6 15 94 -220 94 -250z"/>
</g>
</svg>
