<svg xmlns="http://www.w3.org/2000/svg" viewBox="0 0 512 512"><path d="m474.4 220.6-57.2 27.1V223c23.4-23.7 37.8-56.2 37.8-92C455 58.8 396.2 0 324 0S193 58.8 193 131c0 14 2.2 27.4 6.3 40.1h-26.7c-4.1-41.8-39.5-74.6-82.3-74.6-45.6 0-82.6 37.1-82.6 82.8 0 30.9 17 57.8 42.1 72V377c0 24.4 19.8 44.2 44.2 44.2h60.1v13.6c0 17.5 14.2 31.7 31.7 31.7h12.7v35c0 5.8 4.7 10.4 10.4 10.4s10.4-4.7 10.4-10.5v-34.9h28.1v34.9c0 5.8 4.7 10.5 10.5 10.5s10.5-4.7 10.5-10.5v-35h12.7c17.5 0 31.7-14.2 31.7-31.7v-13.6h60.1c24.4 0 44.2-19.8 44.2-44.2v-32.4l57.2 27.1c14 6.6 30.1-3.6 30.1-19.1v-113c.1-15.3-16-25.5-30-18.9zM291.9 434.8c0 6-4.9 10.8-10.8 10.8h-95.4c-6 0-10.8-4.9-10.8-10.8v-13.6H292v13.6zM239 61l45 45c-2.8 4.4-4.9 9.4-6.1 14.6h-63.6c2.1-22.5 11.1-43.1 24.7-59.6zm194.5 59.6h-63.6c-1.2-5.3-3.3-10.2-6.1-14.7l45-45c13.7 16.6 22.6 37.2 24.7 59.7zm-24.7 80.6-45-45c2.8-4.4 4.9-9.4 6.1-14.7h63.7c-2.2 22.5-11.2 43.1-24.8 59.7zm-84.9-43.9c-14.5 0-26.3-11.8-26.3-26.3s11.8-26.3 26.3-26.3 26.3 11.8 26.3 26.3-11.8 26.3-26.3 26.3zM349 91.2c-4.5-2.8-9.4-4.9-14.7-6.1V21.4c22.5 2.1 43.1 11 59.7 24.7zm-35.6-6.1c-5.3 1.2-10.2 3.3-14.6 6.1l-45-45c16.5-13.7 37.1-22.6 59.6-24.8zM278 141.5c1.2 5.3 3.3 10.2 6.1 14.6l-45 45c-13.7-16.5-22.6-37.1-24.7-59.6zm20.8 29.4c4.4 2.8 9.3 4.9 14.6 6.1v63.7c-22.5-2.1-43.1-11.1-59.6-24.7zm35.5 6.1c5.3-1.2 10.2-3.3 14.6-6.1l45 45c-16.5 13.7-37.1 22.6-59.6 24.7zm-305.9 2.3c0-34.1 27.7-61.9 61.8-61.9s61.9 27.7 61.9 61.9-27.8 61.9-61.9 61.9-61.8-27.8-61.8-61.9zm344.5 221H93.8c-12.9 0-23.3-10.5-23.3-23.3V259.6c6.3 1.6 12.9 2.5 19.7 2.5 41.3 0 75.5-30.4 81.7-70H208c22 41.6 65.7 70 115.9 70 26.7 0 51.6-8 72.3-21.8V377c0 12.9-10.4 23.3-23.3 23.3zm110.4-47.5-66.2-31.3v-50.7l66.5-31.2v.1z" style="fill:#0d6050" stroke="currentColor"/><path d="M120.6 179.3c0-16.8-13.6-30.4-30.4-30.4-16.7 0-30.3 13.6-30.3 30.4s13.6 30.4 30.3 30.4 30.4-13.6 30.4-30.4zm-39.8 0c0-5.2 4.2-9.5 9.4-9.5s9.5 4.3 9.5 9.5-4.3 9.5-9.5 9.5-9.4-4.3-9.4-9.5z" style="fill:#0d6050"/></svg>